<?xml version="1.0" encoding="UTF-8" standalone="no"?>
<!-- Created with Inkscape (http://www.inkscape.org/) -->

<svg
   width="16"
   height="16"
   viewBox="0 0 4.2333332 4.2333333"
   version="1.1"
   id="svg1"
   inkscape:version="1.3.2 (091e20e, 2023-11-25, custom)"
   sodipodi:docname="fsm.svg"
   xmlns:inkscape="http://www.inkscape.org/namespaces/inkscape"
   xmlns:sodipodi="http://sodipodi.sourceforge.net/DTD/sodipodi-0.dtd"
   xmlns:xlink="http://www.w3.org/1999/xlink"
   xmlns="http://www.w3.org/2000/svg"
   xmlns:svg="http://www.w3.org/2000/svg">
  <sodipodi:namedview
     id="namedview1"
     pagecolor="#ffffff"
     bordercolor="#000000"
     borderopacity="0.25"
     inkscape:showpageshadow="2"
     inkscape:pageopacity="0.0"
     inkscape:pagecheckerboard="0"
     inkscape:deskcolor="#d1d1d1"
     inkscape:document-units="mm"
     showgrid="true"
     inkscape:lockguides="false"
     showguides="false"
     inkscape:zoom="22.133156"
     inkscape:cx="5.3313679"
     inkscape:cy="5.3539585"
     inkscape:window-width="1304"
     inkscape:window-height="745"
     inkscape:window-x="-8"
     inkscape:window-y="-8"
     inkscape:window-maximized="1"
     inkscape:current-layer="layer1">
    <inkscape:grid
       id="grid1"
       units="px"
       originx="0"
       originy="0"
       spacingx="0.26458333"
       spacingy="0.26458333"
       empcolor="#0099e5"
       empopacity="0.30196078"
       color="#0099e5"
       opacity="0.14901961"
       empspacing="5"
       dotted="false"
       gridanglex="30"
       gridanglez="30"
       visible="true" />
    <sodipodi:guide
       position="2.1166666,2.1166667"
       orientation="0,-1"
       id="guide21"
       inkscape:locked="false" />
  </sodipodi:namedview>
  <defs
     id="defs1">
    <linearGradient
       id="linearGradient23"
       inkscape:collect="always">
      <stop
         style="stop-color:#ffca0f;stop-opacity:1;"
         offset="0.44871795"
         id="stop23" />
      <stop
         style="stop-color:#0f94ff;stop-opacity:1;"
         offset="0.55128205"
         id="stop24" />
    </linearGradient>
    <linearGradient
       inkscape:collect="always"
       xlink:href="#linearGradient23"
       id="linearGradient24"
       x1="0.46612137"
       y1="2.1277771"
       x2="3.7418906"
       y2="2.1277771"
       gradientUnits="userSpaceOnUse"
       gradientTransform="matrix(0.74860329,0.74847214,-0.74847214,0.74860329,2.1214191,-1.0398172)" />
  </defs>
  <g
     inkscape:label="Layer 1"
     inkscape:groupmode="layer"
     id="layer1">
    <path
       id="path21"
       style="display:inline;fill:#0f94ff;fill-opacity:1;stroke:none;stroke-width:0.946336;stroke-dasharray:none;stroke-opacity:1;paint-order:normal"
       inkscape:label="path21"
       d="m 1.706166,2.3359409 -0.2163023,0.091847 a 0.72155236,0.72155236 0 0 0 -0.081341,-0.03467 0.72155236,0.72155236 0 0 0 -0.083747,-0.023034 L 1.2154933,2.1600061 A 0.91408411,0.91408411 0 0 0 0.9286191,2.1897795 L 0.8657027,2.41644 A 0.72155236,0.72155236 0 0 0 0.7156263,2.508024 L 0.4853531,2.462571 A 0.91408411,0.91408411 0 0 0 0.3295308,2.7040081 l 0.1368817,0.19053 a 0.72155236,0.72155236 0 0 0 -0.021829,0.177123 l -0.179998,0.1522946 a 0.91408411,0.91408411 0 0 0 0.090277,0.2702508 l 0.2326897,0.011464 a 0.72155236,0.72155236 0 0 0 0.129814,0.1307873 l 0.00707,0.2357964 a 0.91408411,0.91408411 0 0 0 0.1296779,0.05925 0.91408411,0.91408411 0 0 0 0.1376624,0.037093 L 1.147642,3.7915256 a 0.72155236,0.72155236 0 0 0 0.1834015,-0.01791 L 1.5175562,3.9132185 A 0.91408411,0.91408411 0 0 0 1.7594764,3.7626854 L 1.7180084,3.5305788 a 0.72155236,0.72155236 0 0 0 0.096178,-0.150329 L 2.0430079,3.3206188 A 0.91408411,0.91408411 0 0 0 2.0767397,3.0360759 L 1.8696192,2.9238996 A 0.72155236,0.72155236 0 0 0 1.8122461,2.7557678 L 1.9083824,2.5410794 A 0.91408411,0.91408411 0 0 0 1.706166,2.3359409 Z M 1.2919423,2.7166103 A 0.37774564,0.37774564 0 0 1 1.5190939,3.1997294 0.37774564,0.37774564 0 0 1 1.0359749,3.4268809 0.37774564,0.37774564 0 0 1 0.8088229,2.9437618 0.37774564,0.37774564 0 0 1 1.2919423,2.7166103 Z" />
    <path
       id="path22"
       style="display:inline;fill:#ffca0f;fill-opacity:1;stroke:none;stroke-width:0.946336;stroke-dasharray:none;stroke-opacity:1;paint-order:normal"
       inkscape:label="path21"
       d="m 2.4965479,1.9095811 0.2163023,-0.091847 a 0.72155236,0.72155236 0 0 0 0.081341,0.03467 0.72155236,0.72155236 0 0 0 0.083747,0.023034 L 2.9872206,2.0855159 A 0.91408411,0.91408411 0 0 0 3.2740947,2.0557425 L 3.3370111,1.829082 A 0.72155236,0.72155236 0 0 0 3.4870875,1.737499 L 3.7173607,1.782951 A 0.91408411,0.91408411 0 0 0 3.873183,1.5415138 l -0.1368817,-0.19053 a 0.72155236,0.72155236 0 0 0 0.021829,-0.177123 L 3.9381283,1.0215662 A 0.91408411,0.91408411 0 0 0 3.8478509,0.75131529 L 3.6151613,0.73985129 A 0.72155236,0.72155236 0 0 0 3.4853472,0.60906399 l -0.00707,-0.2357964 a 0.91408411,0.91408411 0 0 0 -0.1296779,-0.05925 0.91408411,0.91408411 0 0 0 -0.1376624,-0.037093 l -0.1558624,0.1770717 a 0.72155236,0.72155236 0 0 0 -0.1834015,0.01791 L 2.6851573,0.33230339 a 0.91408411,0.91408411 0 0 0 -0.2419202,0.1505331 l 0.041468,0.2321066 a 0.72155236,0.72155236 0 0 0 -0.096178,0.150329 l -0.2288215,0.059631 A 0.91408411,0.91408411 0 0 0 2.1259742,1.2094461 l 0.2071205,0.1121763 a 0.72155236,0.72155236 0 0 0 0.057373,0.1681318 L 2.2943315,1.7044426 A 0.91408411,0.91408411 0 0 0 2.4965479,1.9095811 Z M 2.9107716,1.5289117 A 0.37774564,0.37774564 0 0 1 2.68362,1.0457926 0.37774564,0.37774564 0 0 1 3.166739,0.81864099 0.37774564,0.37774564 0 0 1 3.3938909,1.3017602 0.37774564,0.37774564 0 0 1 2.9107716,1.5289117 Z" />
    <path
       id="path23"
       style="fill:url(#linearGradient24);fill-opacity:1;stroke:none;stroke-width:0.560172;stroke-dasharray:none;stroke-opacity:1;paint-order:normal"
       d="M 1.9796529,0.39819277 A 1.7336777,1.7336777 0 0 0 0.87746118,0.90195521 1.7336777,1.7336777 0 0 0 0.37426221,2.1799566 H 0.79181029 A 1.3160764,1.3160764 0 0 1 1.1732949,1.1977889 1.3160764,1.3160764 0 0 1 2.0906609,0.81292338 V 0.39819277 a 1.7336777,1.7336777 0 0 0 -0.111008,0 z M 3.4182497,2.1799566 A 1.3160764,1.3160764 0 0 1 3.0345111,3.0584417 1.3160764,1.3160764 0 0 1 2.0906609,3.4427437 V 3.8569108 A 1.7336777,1.7336777 0 0 0 3.3297813,3.3537119 1.7336777,1.7336777 0 0 0 3.8369247,2.1799566 Z" />
  </g>
</svg>
