<?xml version="1.0" encoding="UTF-8" standalone="no"?>
<!-- Created with Inkscape (http://www.inkscape.org/) -->

<svg
   width="16"
   height="16"
   viewBox="0 0 4.2333332 4.2333333"
   version="1.1"
   id="svg1"
   inkscape:version="1.3.2 (091e20e, 2023-11-25, custom)"
   sodipodi:docname="fsmw.svg"
   xmlns:inkscape="http://www.inkscape.org/namespaces/inkscape"
   xmlns:sodipodi="http://sodipodi.sourceforge.net/DTD/sodipodi-0.dtd"
   xmlns="http://www.w3.org/2000/svg"
   xmlns:svg="http://www.w3.org/2000/svg">
  <sodipodi:namedview
     id="namedview1"
     pagecolor="#ffffff"
     bordercolor="#000000"
     borderopacity="0.25"
     inkscape:showpageshadow="2"
     inkscape:pageopacity="0.0"
     inkscape:pagecheckerboard="0"
     inkscape:deskcolor="#d1d1d1"
     inkscape:document-units="mm"
     showgrid="true"
     inkscape:lockguides="false"
     showguides="false"
     inkscape:zoom="8"
     inkscape:cx="-8.375"
     inkscape:cy="7.3125"
     inkscape:window-width="1304"
     inkscape:window-height="745"
     inkscape:window-x="-8"
     inkscape:window-y="-8"
     inkscape:window-maximized="1"
     inkscape:current-layer="layer1">
    <inkscape:grid
       id="grid1"
       units="px"
       originx="0"
       originy="0"
       spacingx="0.26458333"
       spacingy="0.26458333"
       empcolor="#0099e5"
       empopacity="0.30196078"
       color="#0099e5"
       opacity="0.14901961"
       empspacing="5"
       dotted="false"
       gridanglex="30"
       gridanglez="30"
       visible="true" />
    <sodipodi:guide
       position="2.1166666,2.1166667"
       orientation="0,-1"
       id="guide21"
       inkscape:locked="false" />
  </sodipodi:namedview>
  <defs
     id="defs1" />
  <g
     inkscape:label="Layer 1"
     inkscape:groupmode="layer"
     id="layer1">
    <path
       id="path21"
       style="display:inline;fill:#0f94ff;fill-opacity:1;stroke:none;stroke-width:1.50796;stroke-dasharray:none;stroke-opacity:1;paint-order:normal"
       inkscape:label="path21"
       d="M 1.5394409,0.51521403 A 1.4565629,1.4565629 0 0 0 1.2361002,0.56275635 L 1.135848,0.92397461 A 1.1497699,1.1497699 0 0 0 0.8965861,1.0697021 L 0.52968343,0.99735514 A 1.4565629,1.4565629 0 0 0 0.28163656,1.3823446 L 0.4997111,1.6856852 a 1.1497699,1.1497699 0 0 0 -0.0346232,0.2821533 l -0.2868042,0.2428793 a 1.4565629,1.4565629 0 0 0 0.14366049,0.4304646 l 0.37103678,0.018604 a 1.1497699,1.1497699 0 0 0 0.20670573,0.208256 l 0.0113688,0.3756876 a 1.4565629,1.4565629 0 0 0 0.2067057,0.094568 1.4565629,1.4565629 0 0 0 0.2191081,0.058911 L 1.5854329,3.1150553 a 1.1497699,1.1497699 0 0 0 0.059945,-0.00207 L 1.6288411,3.0819824 1.8102254,2.7925944 C 1.7999054,2.7507891 1.792301,2.7087171 1.786971,2.6659871 L 1.6536458,2.5662516 A 0.60192524,0.60192524 0 0 1 1.4071492,2.5342122 0.60192524,0.60192524 0 0 1 1.0454142,1.7642334 0.60192524,0.60192524 0 0 1 1.815393,1.4024984 0.60192524,0.60192524 0 0 1 2.0846273,1.5978353 l -0.00465,-0.1663981 0.062528,-0.039274 C 2.2617476,1.3159643 2.3921255,1.257901 2.5290446,1.2221476 l 0.074414,-0.01912 h 5.168e-4 l 5.168e-4,0.00103 0.1074869,0.1085205 0.085266,-0.1901693 A 1.4565629,1.4565629 0 0 0 2.4753011,0.79581706 L 2.1306193,0.94206136 A 1.1497699,1.1497699 0 0 0 2.0009114,0.88676758 1.1497699,1.1497699 0 0 0 1.8675862,0.85007731 L 1.6934367,0.51521403 a 1.4565629,1.4565629 0 0 0 -0.1539958,0 z" />
    <path
       id="path22"
       style="display:inline;fill:#ffca0f;fill-opacity:1;stroke:none;stroke-width:1.26349;stroke-dasharray:none;stroke-opacity:1;paint-order:normal"
       inkscape:label="path21"
       d="m 2.0090962,3.3984494 0.3034834,-0.079616 a 0.96337786,0.96337786 0 0 0 0.100774,0.061495 0.96337786,0.96337786 0 0 0 0.1061977,0.046588 l 0.1038492,0.2986232 a 1.2204359,1.2204359 0 0 0 0.3847422,0.016004 L 3.13499,3.4542321 A 0.96337786,0.96337786 0 0 0 3.3509291,3.3621901 L 3.6463826,3.4666626 A 1.2204359,1.2204359 0 0 0 3.8988237,3.1777575 L 3.7547405,2.899635 A 0.96337786,0.96337786 0 0 0 3.8177496,2.6698426 L 4.0849315,2.5033654 A 1.2204359,1.2204359 0 0 0 4.0177986,2.1289114 L 3.7125956,2.0688763 A 0.96337786,0.96337786 0 0 0 3.5663247,1.8710454 L 3.6024732,1.5581626 A 1.2204359,1.2204359 0 0 0 3.4425814,1.4548683 1.2204359,1.2204359 0 0 0 3.2678665,1.3793062 L 3.0277913,1.5831734 A 0.96337786,0.96337786 0 0 0 2.7820379,1.5714516 L 2.562557,1.3510376 A 1.2204359,1.2204359 0 0 0 2.2139074,1.5032425 l 0.010012,0.3146439 A 0.96337786,0.96337786 0 0 0 2.0678501,1.9979367 l -0.3138082,0.034638 a 1.2204359,1.2204359 0 0 0 -0.099457,0.3694124 l 0.2519934,0.1881576 a 0.96337786,0.96337786 0 0 0 0.043362,0.2331931 L 1.7815155,3.0884227 A 1.2204359,1.2204359 0 0 0 2.0090962,3.3984494 Z M 2.6297792,2.9754439 A 0.50434564,0.50434564 0 0 1 2.4228827,2.2933569 0.50434564,0.50434564 0 0 1 3.1049694,2.0864603 0.50434564,0.50434564 0 0 1 3.3118661,2.7685474 0.50434564,0.50434564 0 0 1 2.6297792,2.9754439 Z" />
  </g>
</svg>
